PathFileType	4	(X/Y/Z)	Formatted/subject18/trials/walk2/markers.trc
DataRate	CameraRate	NumFrames	NumMarkers	Units	OrigDataRate	OrigDataStartFrame	OrigNumFrames
200.00000000000426	200.00000000000426	4	64	m	200.00000000000426	134	215
Frame#	Time	CLAV			C7			RACR			RASH			RPSH			RLEL			RMEL			RUA1			RUA2			RUA3			RFAsuperior			RFAradius			RFAulna			RASI			RPSI			RCAL			RTOE			RMT5			RTH1			RTH2			RTH3			RTB1			RTB2			RTB3			RLFC			RMFC			RLMAL			RMMAL			RHJC			RKJC			REJC			RAJC			RSJC			LACR			LASH			LPSH			LLEL			LMEL			LUA1			LUA2			LUA3			LFAsuperior			LFAradius			LFAulna			LASI			LPSI			LCAL			LTOE			LMT5			LTH1			LTH2			LTH3			LTB1			LTB2			LTB3			LLFC			LMFC			LLMAL			LMMAL			LHJC			LKJC			LEJC			LAJC			LSJC			
		X1	Y1	Z1	X2	Y2	Z2	X3	Y3	Z3	X4	Y4	Z4	X5	Y5	Z5	X6	Y6	Z6	X7	Y7	Z7	X8	Y8	Z8	X9	Y9	Z9	X10	Y10	Z10	X11	Y11	Z11	X12	Y12	Z12	X13	Y13	Z13	X14	Y14	Z14	X15	Y15	Z15	X16	Y16	Z16	X17	Y17	Z17	X18	Y18	Z18	X19	Y19	Z19	X20	Y20	Z20	X21	Y21	Z21	X22	Y22	Z22	X23	Y23	Z23	X24	Y24	Z24	X25	Y25	Z25	X26	Y26	Z26	X27	Y27	Z27	X28	Y28	Z28	X29	Y29	Z29	X30	Y30	Z30	X31	Y31	Z31	X32	Y32	Z32	X33	Y33	Z33	X34	Y34	Z34	X35	Y35	Z35	X36	Y36	Z36	X37	Y37	Z37	X38	Y38	Z38	X39	Y39	Z39	X40	Y40	Z40	X41	Y41	Z41	X42	Y42	Z42	X43	Y43	Z43	X44	Y44	Z44	X45	Y45	Z45	X46	Y46	Z46	X47	Y47	Z47	X48	Y48	Z48	X49	Y49	Z49	X50	Y50	Z50	X51	Y51	Z51	X52	Y52	Z52	X53	Y53	Z53	X54	Y54	Z54	X55	Y55	Z55	X56	Y56	Z56	X57	Y57	Z57	X58	Y58	Z58	X59	Y59	Z59	X60	Y60	Z60	X61	Y61	Z61	X62	Y62	Z62	X63	Y63	Z63	X64	Y64	Z64	

135	3.11	1.680923213896491	1.414766230591363	-0.4936014880087067	1.574047963558415	1.510259066832315	-0.5114794234342459	1.601838862067235	1.47663753986863	-0.3510597008176696	1.656843940408567	1.424922533313407	-0.3707091766873417	1.543240604354007	1.448187025935274	-0.3576889529818439	1.5410671782603	1.156766318083668	-0.2450572141818647	1.521862392039694	1.136487748293778	-0.3155713491036815	1.613659995194209	1.370668354881059	-0.2930598953448528	1.556892486453389	1.327666960463351	-0.2944850652342181	1.600312581615287	1.267762888155779	-0.2938352789418453	1.61353591647797	1.102529150291378	-0.2660169564747983	1.698741460863349	0.9610983867292988	-0.2599924995685549	1.648649041447123	0.9331013184915204	-0.2331546736424267	1.64392643935445	1.011557158130275	-0.388274026518113	1.480657736466339	1.066551338391324	-0.4505586973058021	1.087821599335032	0.2294231771358277	-0.3949239926319884	1.201124364881322	0.04230245888839416	-0.4378874678838537	1.200374231214427	0.056664467955316	-0.3649993473234776	1.590925787504819	0.7877477903314262	-0.3398120291069479	1.598474909935636	0.6629040358060605	-0.3703828323627961	1.500755379855101	0.554464950897399	-0.3526510941804136	1.41218574550998	0.3688338482901524	-0.4090694038441911	1.313532803831759	0.3495067006251046	-0.3424939905676868	1.259353684490791	0.2415280166302658	-0.4025205435073511	1.485387069669398	0.4743285884461765	-0.355312151125477	1.491216692380424	0.4798094646547955	-0.4678214669087446	1.157339599041844	0.2034999616284968	-0.3554019162531439	1.171016451213252	0.1960010126221883	-0.4367733973273717	1.58264587177198	0.9114322862116043	-0.4140299313483704	1.494730955126293	0.4836459114442153	-0.4186667270636043	1.545571362747865	1.146957762486435	-0.285266997019185	1.144194717252601	0.1966512880709597	-0.4002924226785892	1.614286174430767	1.431635716792556	-0.3480940654549568	1.595027762180111	1.475138326769856	-0.6759626526465853	1.642146979922906	1.415386912796131	-0.6410797691135487	1.536719339827063	1.451201412755494	-0.6584440193066784	1.521319601350779	1.146345730159925	-0.7698849256362585	1.505834123782453	1.138667692495598	-0.6990778482702702	1.564664667753065	1.35156770175561	-0.7332327710868461	1.513417557113323	1.290421284579226	-0.70219980339457	1.575963461951061	1.267324098507003	-0.7356426477186532	1.564114444979809	1.073505573925546	-0.7599773693854007	1.592379447458657	0.9143508281131153	-0.7777627162928519	1.536768039874277	0.914806465679464	-0.8013780807017948	1.636445321092341	1.033540620603292	-0.6417101668189186	1.472701171353471	1.07320649517669	-0.550233044360571	1.623704448591416	0.05005521751079975	-0.592312494550582	1.841790219255507	0.01750772638614314	-0.5220946248036237	1.828413262521996	0.02946954882907278	-0.6161909512264651	1.608735882760571	0.8009324571146834	-0.6931499110294598	1.695516879229592	0.7259106921161098	-0.6642475897824992	1.684647607154054	0.6046630818251904	-0.6547108600281363	1.736674244471881	0.3861892175944861	-0.5810534929949098	1.692029599177641	0.276428202833188	-0.6408066176783787	1.729096270732635	0.1700837172412004	-0.5891844703736204	1.710256974697602	0.5237488774371755	-0.6441534976707588	1.718709693284607	0.5271006326617471	-0.5297300671276352	1.687168797303412	0.08876763562269652	-0.6294721894429488	1.692348592088241	0.09354291757374045	-0.5520603923418732	1.567969273521656	0.9350560620825438	-0.6303731945218821	1.719043469738065	0.5263632650955192	-0.588060797720706	1.527547397658724	1.14270720486942	-0.7294569650048724	1.68289776440667	0.07441459004238277	-0.5841792937283807	1.606353809477902	1.425759868614925	-0.6713085123725934	
136	3.115	1.687382575211571	1.41568531212081	-0.4939490754092573	1.580402771436071	1.51104633849016	-0.5119050693162259	1.608032263348017	1.477361810501954	-0.3514706831311685	1.6631316944599	1.425732663229671	-0.3710815548960686	1.549480688675324	1.448837133303683	-0.3581930657769811	1.546824208791284	1.157116033735119	-0.2468805477474522	1.527799415755905	1.137159201207032	-0.3175351266201739	1.61971130070285	1.371169094715131	-0.2937507379867771	1.562915472055258	1.328217908174071	-0.2955200606448377	1.606288314734612	1.268278254338808	-0.2950109622793728	1.618862108096771	1.102330728911143	-0.267684539873202	1.702639476884718	0.9600507194234111	-0.2616272190202344	1.652156053543777	0.9324874046030537	-0.2350745758897238	1.650799701549537	1.012038352680698	-0.3891513678690596	1.487551337363306	1.06719589973839	-0.4513448242256587	1.097381121095185	0.2372000613766599	-0.3942880589686831	1.203288775066843	0.04595603945899587	-0.4379553578840741	1.203338862988573	0.06020642840080438	-0.3650414906845643	1.599771204360956	0.788958601251543	-0.3406428003427003	1.609126846733523	0.6641715946810645	-0.3709446361311306	1.51303696978649	0.5543433178500163	-0.3528603503950604	1.423436041309862	0.36969800016338	-0.4090238045744526	1.324535599134631	0.3521315487588068	-0.3423278563154704	1.268374673529294	0.2451276434430791	-0.4022784602321374	1.498849272459037	0.4739832910484816	-0.3553257318957116	1.50447266432318	0.4792975777109105	-0.4678535349676545	1.16575798980748	0.2089214233787503	-0.3550333813125914	1.179201461738673	0.201174353082782	-0.4364205081693354	1.589585747948885	0.9123410479192507	-0.4151259317938022	1.507996092154475	0.4830248823766743	-0.4187318248794429	1.551432294860976	1.147479060456674	-0.2871200353862297	1.152439468118352	0.2023038291727573	-0.39990736309296	1.620535934688004	1.432374823888112	-0.3485170587851098	1.601641069350031	1.476056409042698	-0.6763830026806753	1.648795263713037	1.416346263559229	-0.6414767253591001	1.543342233203238	1.452030632965856	-0.6589543403176252	1.528586613475946	1.14729184041524	-0.7708748364406384	1.512787908350197	1.139561474739621	-0.7001426878384797	1.571656162025764	1.352514219804703	-0.7339015781909933	1.520303396825449	1.291321026499771	-0.7031366246619066	1.583011095343078	1.268278207153076	-0.7363129275916922	1.571573865321232	1.074547091588627	-0.7607283554008674	1.600417950057905	0.9154849172608835	-0.7784118369076626	1.544956818804445	0.9157897537711976	-0.80238039318591	1.643356945805736	1.034542358424208	-0.6425429464105691	1.479609422301994	1.074056890149748	-0.5510063829971419	1.624023954549336	0.05034431997802597	-0.5927096333409421	1.842189918372195	0.01749630208696491	-0.5228819044194594	1.828650698538101	0.02938576695678097	-0.6169641926849655	1.614660338385662	0.8014640151835921	-0.6941513864449821	1.700966244978311	0.7258864827533078	-0.6652744436689506	1.68929717464918	0.6047213174265171	-0.6556355225621145	1.739693186414742	0.385920866560272	-0.5818550286047171	1.694081874263665	0.2764982704850444	-0.6414986728288191	1.730278780834537	0.1698814351451091	-0.5898211320094146	1.714376046538893	0.5236459542290803	-0.6450411021053839	1.722959927025888	0.527027222233257	-0.530628304769061	1.687638008863896	0.08889402877588992	-0.6300221648455159	1.692907365391199	0.09368216791010231	-0.5526172068159259	1.5748495041369	0.9359038584891999	-0.6314377517052618	1.723246585970171	0.5262341197454163	-0.5889550599056936	1.534635013791605	1.143631525360536	-0.7304216133146916	1.683274317608074	0.07461101270738646	-0.5847159655759117	1.613027160028711	1.426690238660819	-0.6717450441077536	
137	3.12	1.693792492284771	1.416582927761664	-0.4942634088458949	1.586726698916439	1.51182847332317	-0.5123195275968386	1.614159176504766	1.478079061609343	-0.3518649704723582	1.6693484564012	1.426526939227973	-0.3714257606093874	1.555651332461315	1.449489363495958	-0.3586910880751312	1.552537740453269	1.157468429154022	-0.2486531614427528	1.533689706394553	1.137825184847017	-0.3194428640519004	1.625697501029826	1.371667840448693	-0.2944168746739327	1.568877228302256	1.32876413503875	-0.2965215715598014	1.612207460582259	1.268792658180988	-0.2961504931517731	1.624139854237003	1.102141724676472	-0.2693067454961309	1.706489764737018	0.9590318698394953	-0.2632238641101828	1.655624809067382	0.9319052351922156	-0.2369511179506726	1.657574674838869	1.012559468556028	-0.3899896808305124	1.494344922085841	1.067842093767647	-0.4521209015361994	1.107245852098439	0.2450522979298106	-0.3937914611012798	1.205871310961464	0.05009610015882805	-0.4380931529237132	1.206669355859433	0.06420931864904254	-0.3651569594943275	1.608610779767852	0.7902175578132927	-0.3414517825831778	1.619844835996867	0.6655264468602573	-0.3715092131971572	1.525472459096444	0.5542745564521721	-0.3530856523917879	1.434892179207705	0.3706791188099992	-0.4090267857931053	1.335759414673317	0.3548836738788169	-0.3422328780861447	1.277637142220291	0.2488985665475505	-0.4021237680153692	1.51251658481693	0.473701411832567	-0.3553696087626864	1.517927254010269	0.4788689314895815	-0.4679146754802496	1.174436640805368	0.2145322397497206	-0.3547762895011249	1.187659495195714	0.2065443143074479	-0.4361762748981234	1.596447022007361	0.9132751387680893	-0.4161751611570342	1.521453431201931	0.4824772415248064	-0.4188226777845818	1.557247620023748	1.147999277427503	-0.2889206952216948	1.160957888441534	0.2081525221818342	-0.3996368763491842	1.626711623870613	1.43310508233054	-0.3489201595603206	1.608249038001838	1.476963645552496	-0.6767871041269106	1.655422188240159	1.417288007293803	-0.6418474445529779	1.549952974249868	1.452858460377803	-0.6594591070513556	1.535829636967024	1.148238120472128	-0.7718657648115586	1.519695280544699	1.140458450278055	-0.7012148358897401	1.578642423590007	1.35345432084451	-0.7345614856139902	1.527166486948753	1.292222670476058	-0.7040802010891943	1.59004126790959	1.269224151470925	-0.7369697753583829	1.579022786099493	1.075596613339338	-0.7614614914357225	1.608490596123199	0.9166347712389498	-0.7790183411766446	1.553189764556342	0.9167735705924536	-0.8033559757788126	1.65019554198389	1.035533497853829	-0.6433409376646873	1.48642791083292	1.074888257189833	-0.5517715212777575	1.624321165739407	0.05059941890774511	-0.5930663661040906	1.842581159204502	0.01748892066113287	-0.523657707170654	1.828865357631117	0.02930729610779989	-0.6177233736110798	1.620477915718392	0.8019751552717588	-0.6951109322639452	1.706283203388189	0.7258185257707008	-0.6662635556750404	1.693778966885557	0.6047447376729231	-0.6565241924381973	1.742568382408646	0.3856281318301318	-0.5826282879399921	1.696024065606039	0.2765361425641106	-0.6421566431640153	1.731396036166192	0.1696664784224517	-0.5904301273980644	1.718302291885499	0.5235041556358545	-0.6458949667421968	1.727022843819466	0.526908678175851	-0.5314931950247308	1.688068128659206	0.08899863870189623	-0.6305388612554097	1.693437349981092	0.09379959517916103	-0.5531415602595545	1.581667752982151	0.9367349698657857	-0.632456821362459	1.727254571888071	0.5260650058757531	-0.5898172896572553	1.541685603503896	1.144555380987994	-0.7313862712405315	1.683624582801977	0.07478409363038147	-0.5852188915922366	1.619686595492674	1.427608142827954	-0.6721622659360518	
138	3.125	1.700150788812692	1.417444899165291	-0.4945439638232664	1.593023119988517	1.512596955156437	-0.5127255560583606	1.620219396305347	1.478782963594082	-0.3522443887869443	1.675491325093428	1.427295436453203	-0.3717418472176756	1.561750815255556	1.450140499590147	-0.3591847648690831	1.558202881280269	1.157817183274402	-0.2503735951422223	1.539528626600417	1.138478855015737	-0.3212931883629037	1.631615201879286	1.372157944123194	-0.2950583267441511	1.57477409045358	1.32929912982274	-0.2974896161900127	1.618066048072283	1.269299336282442	-0.297253087572501	1.629364155417225	1.10195512074484	-0.2708811678731942	1.710286504806144	0.9580341056839624	-0.2647775173261074	1.659049124760018	0.9313476489110977	-0.238779072675668	1.664249560974437	1.013130696939534	-0.3907871692921814	1.501025237513136	1.068479536126699	-0.4528736867634976	1.11739361119959	0.2529418872428311	-0.3934517871258256	1.208972836256567	0.05471058227934807	-0.438342046136314	1.210463576585343	0.06866109173841892	-0.365385421331674	1.617451224900539	0.7915139088383245	-0.3422434042887178	1.630625693097262	0.6669639158951804	-0.3720973646753956	1.538057292191658	0.5542595667445998	-0.3533523101201094	1.446548149634289	0.3717825619857563	-0.4091147568897718	1.347206668323558	0.357755186481687	-0.3422362848750198	1.287144624853323	0.2528352889772911	-0.4020888225779864	1.526380360958367	0.4734868316688031	-0.3554777075631015	1.531560385785262	0.4785400904068502	-0.468038813465208	1.183386749463206	0.2203153827875514	-0.3546553889318434	1.196393716746651	0.2121028139642338	-0.4360678018007718	1.603235484086696	0.9142300145760426	-0.4171658885272756	1.535088050588038	0.4820147227171515	-0.4189730918840615	1.563012611886766	1.148511738242576	-0.2906674812898635	1.169756958883682	0.2141838659191038	-0.3995049499501421	1.63281048386272	1.433819495986541	-0.3493040226229531	1.614854808361342	1.477846441354295	-0.677176552401161	1.662027173442173	1.418196673668008	-0.6421916856187282	1.556553185854498	1.453674968485842	-0.6599599558626598	1.543054848159885	1.149167797934797	-0.7728554518132995	1.526562319289674	1.141342315066849	-0.7022923396912019	1.585625566020719	1.35437243175431	-0.7352120582366601	1.534010136706914	1.293110044152628	-0.7050298931666531	1.597057581864768	1.270146518315828	-0.7376119464033842	1.586465641546711	1.076637418749248	-0.7621745273006059	1.616598922374759	0.9177834955886465	-0.779577932926823	1.561468228653641	0.9177414850579967	-0.8042989066175716	1.656934170145044	1.03651009097596	-0.644103189225439	1.49313370754852	1.075684114977455	-0.552514999979595	1.624597463202932	0.05082180863988926	-0.5933794526475439	1.842963921132993	0.01748412756282233	-0.5244158329053679	1.829058853527721	0.02923386812698478	-0.6184623081473887	1.626185923560505	0.8024609910953616	-0.6960162897666612	1.711470220580512	0.7257084899523011	-0.667203219898846	1.698104564426839	0.6047346664777127	-0.6573662203238012	1.745312866630371	0.3853122438167358	-0.583364254107385	1.697866180547975	0.2765446002053352	-0.6427736162259814	1.732453410959804	0.169438718695213	-0.5910050206614582	1.722053209340258	0.5233269933251357	-0.6467051117339268	1.730915502748592	0.5267479788823828	-0.5323147240904919	1.688462136070616	0.08908275165634649	-0.631017578198148	1.693940097777689	0.09389527331140596	-0.5536286158520974	1.5884114072836	0.9375402024220337	-0.6334170360866377	1.731085516659308	0.5258590201222866	-0.5906372392562079	1.548705209240156	1.145462535810789	-0.7323488009247014	1.683950031147082	0.07493453562167413	-0.585683629177115	1.626332440473393	1.428499418766976	-0.6725605127883473	
